<svg width="16" height="17" viewBox="0 0 16 17" fill="none" xmlns="http://www.w3.org/2000/svg">
<g clip-path="url(#clip0_1_897)">
<path d="M9.00002 1.91V1.5C9.00002 1.23478 8.89466 0.980425 8.70713 0.792888C8.51959 0.605352 8.26524 0.499995 8.00002 0.499995C7.7348 0.499995 7.48045 0.605352 7.29291 0.792888C7.10538 0.980425 7.00002 1.23478 7.00002 1.5V1.91C5.72826 2.08172 4.52409 2.58513 3.5085 3.36964C2.49292 4.15415 1.70169 5.19212 1.21432 6.37928C0.726942 7.56643 0.560591 8.86095 0.731977 10.1328C0.903363 11.4046 1.40645 12.6089 2.19069 13.6247C1.91466 13.8515 1.69397 14.1384 1.54542 14.4633C1.39686 14.7883 1.32433 15.1428 1.33335 15.5C1.33335 15.7652 1.43871 16.0196 1.62625 16.2071C1.81378 16.3946 2.06814 16.5 2.33335 16.5C2.59857 16.5 2.85293 16.3946 3.04046 16.2071C3.228 16.0196 3.33335 15.7652 3.33335 15.5C3.32317 15.4009 3.3479 15.3014 3.40329 15.2186C3.45867 15.1359 3.54122 15.075 3.63669 15.0467C4.89568 15.9894 6.42619 16.4989 7.99902 16.4989C9.57185 16.4989 11.1024 15.9894 12.3614 15.0467C12.4572 15.0747 12.5402 15.1353 12.596 15.2181C12.6517 15.3009 12.6768 15.4007 12.6667 15.5C12.6667 15.7652 12.772 16.0196 12.9596 16.2071C13.1471 16.3946 13.4015 16.5 13.6667 16.5C13.9319 16.5 14.1863 16.3946 14.3738 16.2071C14.5613 16.0196 14.6667 15.7652 14.6667 15.5C14.6757 15.1428 14.6032 14.7883 14.4546 14.4633C14.3061 14.1384 14.0854 13.8515 13.8094 13.6247C14.5936 12.6089 15.0967 11.4046 15.2681 10.1328C15.4395 8.86095 15.2731 7.56643 14.7857 6.37928C14.2984 5.19212 13.5071 4.15415 12.4915 3.36964C11.476 2.58513 10.2718 2.08172 9.00002 1.91ZM2.66669 9.16666C2.66669 8.11183 2.97948 7.08068 3.56552 6.20362C4.15155 5.32656 4.9845 4.64297 5.95904 4.2393C6.93358 3.83564 8.00594 3.73002 9.0405 3.93581C10.0751 4.1416 11.0254 4.64955 11.7713 5.39543C12.5171 6.14131 13.0251 7.09162 13.2309 8.12618C13.4367 9.16075 13.331 10.2331 12.9274 11.2076C12.5237 12.1822 11.8401 13.0151 10.9631 13.6012C10.086 14.1872 9.05486 14.5 8.00002 14.5C6.58602 14.4984 5.23039 13.936 4.23054 12.9361C3.23069 11.9363 2.66828 10.5807 2.66669 9.16666Z" fill="#0D1D21"/>
<path d="M13 0.499978C12.7348 0.499978 12.4804 0.605335 12.2929 0.792871C12.1054 0.980408 12 1.23476 12 1.49998C12 1.76519 12.1054 2.01955 12.2929 2.20708C12.4804 2.39462 12.7348 2.49998 13 2.49998C13.1327 2.48965 13.2661 2.50867 13.3907 2.55567C13.5152 2.60267 13.6279 2.67651 13.7208 2.77195C13.8136 2.86739 13.8843 2.98208 13.9278 3.1079C13.9714 3.23372 13.9867 3.36758 13.9727 3.49998C13.9727 3.76519 14.078 4.01955 14.2656 4.20709C14.4531 4.39462 14.7074 4.49998 14.9727 4.49998C15.2379 4.49998 15.4922 4.39462 15.6798 4.20709C15.8673 4.01955 15.9727 3.76519 15.9727 3.49998C15.9881 3.10419 15.922 2.70946 15.7784 2.34031C15.6349 1.97117 15.4169 1.63548 15.1381 1.35413C14.8593 1.07278 14.5257 0.851766 14.1578 0.704826C13.79 0.557886 13.3959 0.488159 13 0.499978Z" fill="#0D1D21"/>
<path d="M2.02728 3.49998C2.01328 3.36758 2.02859 3.23372 2.07213 3.1079C2.11566 2.98208 2.18635 2.86739 2.27918 2.77195C2.37201 2.67651 2.4847 2.60267 2.60927 2.55567C2.73383 2.50867 2.86721 2.48965 2.99995 2.49998C3.26517 2.49998 3.51952 2.39462 3.70706 2.20708C3.89459 2.01955 3.99995 1.76519 3.99995 1.49998C3.99995 1.23476 3.89459 0.980408 3.70706 0.792871C3.51952 0.605335 3.26517 0.499978 2.99995 0.499978C2.60404 0.488159 2.20993 0.557886 1.84211 0.704826C1.47429 0.851766 1.14062 1.07278 0.86183 1.35413C0.583041 1.63548 0.365091 1.97117 0.221524 2.34031C0.0779565 2.70946 0.0118397 3.10419 0.0272817 3.49998C0.0272818 3.76519 0.132639 4.01955 0.320175 4.20709C0.507711 4.39462 0.762065 4.49998 1.02728 4.49998C1.2925 4.49998 1.54685 4.39462 1.73439 4.20709C1.92192 4.01955 2.02728 3.76519 2.02728 3.49998Z" fill="#0D1D21"/>
<path d="M9.02008 8.75267V6.16667C9.02008 5.90146 8.91472 5.6471 8.72718 5.45957C8.53965 5.27203 8.2853 5.16668 8.02008 5.16668C7.75486 5.16668 7.50051 5.27203 7.31297 5.45957C7.12544 5.6471 7.02008 5.90146 7.02008 6.16667V9.02867C7.02016 9.38226 7.16068 9.72134 7.41075 9.97133L8.60608 11.1667C8.79468 11.3488 9.04728 11.4496 9.30948 11.4473C9.57167 11.4451 9.82249 11.3399 10.0079 11.1545C10.1933 10.9691 10.2985 10.7183 10.3007 10.4561C10.303 10.1939 10.2022 9.94127 10.0201 9.75267L9.02008 8.75267Z" fill="#0D1D21"/>
</g>
<defs>
<clipPath id="clip0_1_897">
<rect width="16" height="16" fill="white" transform="translate(0 0.5)"/>
</clipPath>
</defs>
</svg>
