<svg width="22" height="24" viewBox="0 0 22 24" fill="none" xmlns="http://www.w3.org/2000/svg">
<path d="M22 4.5C22 3.67158 21.3284 3 20.5 3H16.724C16.0921 1.20736 14.4007 0.00609375 12.5 0H9.49999C7.59926 0.00609375 5.90787 1.20736 5.27599 3H1.49998C0.671555 3 -2.28882e-05 3.67158 -2.28882e-05 4.5C-2.28882e-05 5.32842 0.671555 6 1.49998 6H1.99999V18.5C1.99999 21.5376 4.46243 24 7.49998 24H14.5C17.5376 24 20 21.5376 20 18.5V6H20.5C21.3284 6 22 5.32842 22 4.5ZM17 18.5C17 19.8807 15.8807 21 14.5 21H7.49998C6.11927 21 4.99999 19.8807 4.99999 18.5V6H17V18.5Z" fill="#DB423D"/>
<path d="M8.50004 18C9.32846 18 10 17.3284 10 16.5V10.5C10 9.67158 9.32846 9 8.50004 9C7.67162 9 7.00004 9.67158 7.00004 10.5V16.5C7.00004 17.3284 7.67162 18 8.50004 18Z" fill="#DB423D"/>
<path d="M13.5 18C14.3284 18 15 17.3284 15 16.5V10.5C15 9.67158 14.3284 9 13.5 9C12.6716 9 12 9.67158 12 10.5V16.5C12 17.3284 12.6716 18 13.5 18Z" fill="#DB423D"/>
</svg>
